<?xml version="1.0" encoding="UTF-8" standalone="no"?>
<svg
   xmlns:dc="http://purl.org/dc/elements/1.1/"
   xmlns:cc="http://creativecommons.org/ns#"
   xmlns:rdf="http://www.w3.org/1999/02/22-rdf-syntax-ns#"
   xmlns:svg="http://www.w3.org/2000/svg"
   xmlns="http://www.w3.org/2000/svg"
   height="460"
   width="560"
   version="1.1"
   id="svg2985">
  <metadata
     id="metadata2991">
    <rdf:RDF>
      <cc:Work
         rdf:about="">
        <dc:format>image/svg+xml</dc:format>
        <dc:type
           rdf:resource="http://purl.org/dc/dcmitype/StillImage" />
        <dc:title></dc:title>
      </cc:Work>
    </rdf:RDF>
  </metadata>
  <defs
     id="defs2989" />
  <g
     id="g7">
    <path
       id="path13"
       d="M 0,230 V 0 H 280 560 V 230 460 H 280 0 Z"
       style="fill:#ffffff" />
    <path
       id="path11"
       d="M 50.497806,422.99781 18.507331,390.99561 145.75341,263.7466 272.99949,136.49758 207.25069,70.748792 141.5019,5 h 86.0007 86.0007 l 113.24971,113.253 113.24971,113.25301 -43.00194,42.99321 -43.00194,42.99321 -58.25175,-58.24536 -58.25174,-58.24537 -126.9962,126.99915 C 140.65124,397.85038 83.274652,455 82.995617,455 82.716582,455 68.092567,440.59901 50.497806,422.99781 Z"
       style="fill:#454545" />
    <path
       id="path9"
       d="M 80,452.5 77.651372,450 H 83 88.348628 L 86,452.5 c -1.291745,1.375 -2.641745,2.5 -3,2.5 -0.358255,0 -1.708255,-1.125 -3,-2.5 z M 70,442.5 67.651372,440 H 83 98.348628 L 96,442.5 c -2.220104,2.36319 -2.931504,2.5 -13,2.5 -10.068496,0 -10.779896,-0.13681 -13,-2.5 z M 60,432.5 57.651372,430 H 83 108.34863 L 106,432.5 103.65137,435 H 83 62.348628 Z M 50,422.5 47.651372,420 H 83 118.34863 L 116,422.5 113.65137,425 H 83 52.348628 Z M 40,412.5 37.651372,410 H 83 128.34863 L 126,412.5 123.65137,415 H 83 42.348628 Z M 30,402.5 27.651372,400 H 83 138.34863 L 136,402.5 133.65137,405 H 83 32.348628 Z m -9.345012,-9.32874 C 19.744744,392.16545 19,391.04045 19,390.67126 19,390.30207 48.103441,390 83.674314,390 H 148.34863 L 146,392.5 143.65137,395 H 82.980674 C 25.473879,395 22.22367,394.9046 20.654988,393.17126 Z M 27,382.5 29.348628,380 h 64.5 64.500002 L 156,382.5 153.65137,385 h -64.499998 -64.5 z m 10,-10 2.348628,-2.5 h 64.500002 64.5 L 166,372.5 163.65137,375 h -64.499998 -64.5 z m 10,-10 2.348628,-2.5 h 64.500002 64.5 L 176,362.5 173.65137,365 h -64.5 -64.499998 z m 10,-10 2.348628,-2.5 h 64.500002 64.5 L 186,352.5 183.65137,355 h -64.5 -64.499998 z m 10,-10 2.348628,-2.5 h 64.500002 64.5 L 196,342.5 193.65137,345 h -64.5 -64.499998 z m 10,-10 2.348628,-2.5 h 64.500002 64.5 L 206,332.5 203.65137,335 h -64.5 -64.499998 z m 10,-10 2.348628,-2.5 h 64.500002 64.5 L 216,322.5 213.65137,325 h -64.5 -64.499998 z m 308.52965,-63.47034 -57.96388,-57.97035 -2.09734,1.97035 C 333.42647,204.94798 331.67191,205 269.01123,205 H 204.65137 L 207,202.5 209.34863,200 h 63.5 63.5 L 334,197.5 331.65137,195 h -58.5 -58.5 L 217,192.5 219.34863,190 h 53.5 53.5 L 324,187.5 321.65137,185 h -48.5 -48.5 L 227,182.5 229.34863,180 h 43.5 43.5 L 314,177.5 311.65137,175 h -38.5 -38.5 L 237,172.5 239.34863,170 h 33.5 33.5 L 304,167.5 301.65137,165 h -28.5 -28.5 L 247,162.5 249.34863,160 h 23.5 23.5 L 294,157.5 c -2.34106,-2.49194 -2.40826,-2.5 -20.84863,-2.5 h -18.5 L 257,152.5 c 2.28026,-2.42723 2.7416,-2.5 15.84863,-2.5 h 13.5 L 284,147.5 c -2.14794,-2.28638 -3.07493,-2.5 -10.84863,-2.5 h -8.5 L 267,142.5 c 1.65528,-1.76196 3.4034,-2.5 5.92154,-2.5 3.46588,0 1.55121,-2.02186 -63.92154,-67.5 L 141.50556,5 h 85.99887 85.99887 L 426.75301,118.253 540.00272,231.50601 497.24705,274.253 C 473.73143,297.76385 454.26686,317 453.99246,317 c -0.27441,0 -26.58267,-26.08666 -58.46281,-57.97034 z M 97,312.5 99.348628,310 h 64.500002 64.5 L 226,312.5 223.65137,315 h -64.5 -64.499998 z m 10,-10 2.34863,-2.5 h 64.5 64.5 L 236,302.5 233.65137,305 h -64.5 -64.5 z m 10,-10 2.34863,-2.5 h 64.5 64.5 L 246,292.5 243.65137,295 h -64.5 -64.5 z m 10,-10 2.34863,-2.5 h 64.5 64.5 L 256,282.5 253.65137,285 h -64.5 -64.5 z m 10,-10 2.34863,-2.5 h 64.5 64.5 L 266,272.5 263.65137,275 h -64.5 -64.5 z m 10,-10 2.34863,-2.5 h 64.5 64.5 L 276,262.5 273.65137,265 h -64.5 -64.5 z m 10,-10 2.34863,-2.5 h 64.5 64.5 L 286,252.5 283.65137,255 h -64.5 -64.5 z m 10,-10 2.34863,-2.5 h 64.5 64.5 L 296,242.5 293.65137,245 h -64.5 -64.5 z m 10,-10 2.34863,-2.5 h 64.5 64.5 L 306,232.5 303.65137,235 h -64.5 -64.5 z m 10,-10 2.34863,-2.5 h 64.5 64.5 L 316,222.5 313.65137,225 h -64.5 -64.5 z m 10,-10 2.34863,-2.5 h 64.5 64.5 L 326,212.5 323.65137,215 h -64.5 -64.5 z"
       style="fill:#242424" />
  </g>
</svg>
